<svg xmlns="http://www.w3.org/2000/svg" width="120" height="120" viewBox="0 0 120 120">
  <defs>
    <style>
      .i { fill: #8b5cf6; opacity: 0.05; }
      .s { fill: none; stroke: #8b5cf6; stroke-width: 1; opacity: 0.05; }
    </style>
  </defs>
  
  <!-- Row 1 -->
  <path class="i" d="M8 12V4h1.5v6.5c0 1.5-1.2 2.5-2.7 2.5S4 12 4 10.5 5.2 8 6.8 8c.4 0 .8.1 1.2.3V12z"/>
  <g class="i" transform="translate(22, 4)"><rect width="2" height="6" rx="1"/><rect x="4" y="2" width="2" height="8" rx="1"/><rect x="8" width="2" height="10" rx="1"/><rect x="12" y="3" width="2" height="7" rx="1"/></g>
  <circle class="s" cx="52" cy="8" r="6"/><circle class="s" cx="52" cy="8" r="3"/><circle class="i" cx="52" cy="8" r="1.5"/>
  <path class="i" d="M72 12V2h6v8c0 1.5-1 2.5-2.5 2.5S73 11.5 73 10c0-1.3 1-2.3 2.2-2.4V5h-3.2v5c0 1.5-1 2.5-2.5 2.5S67 11.5 67 10s1-2.5 2.5-2.5c.3 0 .7.1 1 .2V12h1.5z"/>
  <path class="i" d="M92 6l8 5-8 5z"/>
  <g transform="translate(108, 4)"><path class="i" d="M0 4h3l4-4v12l-4-4H0z"/></g>
  
  <!-- Row 2 -->
  <g transform="translate(4, 22)"><rect class="i" x="2" width="6" height="10" rx="3"/><path class="s" d="M0 8v1c0 4 3 7 5 7s5-3 5-7V8"/></g>
  <g class="i" transform="translate(24, 24)"><rect width="2" height="8" rx="1"/><rect x="4" y="2" width="2" height="10" rx="1"/><rect x="8" width="2" height="12" rx="1"/><rect x="12" y="3" width="2" height="9" rx="1"/></g>
  <path class="i" d="M52 32V24h1v6c0 1.2-1 2-2 2s-2-.8-2-2 1-2 2-2c.3 0 .6.1.8.2V32h.2z"/>
  <g class="i" transform="translate(64, 24)"><circle cx="0" cy="4" r="1.5"/><circle cx="5" cy="1" r="1.5"/><circle cx="10" cy="5" r="1.5"/><circle cx="15" cy="2" r="1.5"/></g>
  <g class="i" transform="translate(88, 22)"><rect width="2" height="5" rx="1"/><rect x="4" width="2" height="8" rx="1"/><rect x="8" width="2" height="10" rx="1"/><rect x="12" width="2" height="6" rx="1"/></g>
  <g transform="translate(108, 22)"><path class="s" d="M8 6c0-3-2.5-5.5-5.5-5.5S-3 3-3 6v2.5c0 1 .8 1.5 1.5 1.5H0V5h-1v-.2c0-2.5 2-4.3 4-4.3s4 1.8 4 4.3V5H6v5h1.5c.7 0 1.5-.5 1.5-1.5V6z"/></g>
  
  <!-- Row 3 -->
  <circle class="s" cx="8" cy="48" r="5"/><circle class="s" cx="8" cy="48" r="2.5"/><circle class="i" cx="8" cy="48" r="1"/>
  <g class="i" transform="translate(22, 44)"><rect width="3" height="10" rx="1"/><rect x="6" width="3" height="10" rx="1"/></g>
  <path class="i" d="M48 52V44h1v6.5c0 1-1 1.5-2 1.5s-2-.5-2-1.5 1-1.5 2-1.5c.3 0 .6 0 .8.2V52h.2z"/>
  <g class="i" transform="translate(58, 42)"><rect width="2" height="8" rx="1"/><rect x="3" y="2" width="2" height="12" rx="1"/><rect x="6" y="4" width="2" height="6" rx="1"/><rect x="9" width="2" height="14" rx="1"/><rect x="12" y="3" width="2" height="10" rx="1"/></g>
  <g transform="translate(80, 42)"><rect class="s" width="14" height="14" rx="2"/><circle class="i" cx="7" cy="7" r="4"/><circle class="s" cx="7" cy="7" r="1.5"/></g>
  <path class="i" d="M108 52V42h8v8c0 1.5-1.2 2.5-2.7 2.5s-2.7-1-2.7-2.5c0-1.3 1.2-2.3 2.5-2.4V45h-5v5.5c0 1.5-1.2 2.5-2.7 2.5s-2.7-1-2.7-2.5 1.2-2.5 2.7-2.5c.5 0 1 .1 1.4.3V52h1.2z"/>
  
  <!-- Row 4 -->
  <g transform="translate(4, 62)"><path class="s" d="M0 3h3l7 9h3M0 12h3l2-2.5M8 3h5M10 0l3 3-3 3"/></g>
  <g transform="translate(24, 64)"><path class="i" d="M0 5h2l3-3v10l-3-3H0z"/><path class="s" d="M7 4c1 1 1.5 2 1.5 3s-.5 2-1.5 3"/></g>
  <path class="i" d="M52 70c-1-2.5-4-3-6-1.5-2-1.5-5-1-6 1.5-1.5 3 0 6 6 9 6-3 7.5-6 6-9z"/>
  <g class="i" transform="translate(68, 62)"><rect width="12" height="2" rx="1"/><rect y="5" width="9" height="2" rx="1"/><rect y="10" width="11" height="2" rx="1"/></g>
  <g transform="translate(88, 62)"><rect class="s" width="18" height="12" rx="1.5"/><circle class="s" cx="5" cy="6" r="2.5"/><circle class="s" cx="13" cy="6" r="2.5"/><rect class="i" x="7" y="5" width="4" height="2"/></g>
  <path class="i" d="M116 72V64h1v6.5c0 1-1 1.5-2 1.5s-2-.5-2-1.5 1-1.5 2-1.5c.3 0 .6 0 .8.2V72h.2z"/>
  
  <!-- Row 5 -->
  <g transform="translate(4, 82)"><rect class="s" x="0" y="3" width="16" height="11" rx="1.5"/><circle class="s" cx="11" cy="8.5" r="3"/><rect class="i" x="2" y="5.5" width="5" height="1.5"/><rect class="i" x="2" y="8.5" width="4" height="1"/><line class="s" x1="4" y1="3" x2="8" y2="0"/></g>
  <g transform="translate(28, 84)"><circle class="i" cx="5" cy="7" r="2"/><path class="s" d="M9 4c1.5 1 2.5 2.5 2.5 4.5s-1 3.5-2.5 4.5"/><path class="s" d="M11 2c2 1.5 4 4 4 6.5s-2 5-4 6.5"/></g>
  <path class="i" d="M56 96V88h1v6.5c0 1-1 1.5-2 1.5s-2-.5-2-1.5 1-1.5 2-1.5c.3 0 .6 0 .8.2V96h.2z"/>
  <g transform="translate(66, 82)"><rect class="i" x="4" width="7" height="10" rx="3.5"/><path class="s" d="M1 8v1.5c0 4 3 7 6.5 7s6.5-3 6.5-7V8"/><line class="s" x1="7.5" y1="16.5" x2="7.5" y2="20"/></g>
  <g transform="translate(88, 82)"><path class="s" d="M14 14c0-4-3-7-7-7s-7 3-7 7v3c0 1 .8 2 2 2h1.5v-5H2v-.2c0-3 2.2-5.3 5-5.3s5 2.3 5 5.3v.2h-1.5v5H12c1.2 0 2-1 2-2v-3z"/></g>
  <g transform="translate(108, 84)"><circle class="s" cx="6" cy="6" r="5.5"/><circle class="s" cx="6" cy="6" r="3"/><circle class="i" cx="6" cy="6" r="1.2"/><line class="s" x1="10" y1="2" x2="8" y2="5"/></g>
  
  <!-- Row 6 -->
  <g transform="translate(4, 102)"><rect class="s" width="16" height="14" rx="1.5"/><circle class="s" cx="8" cy="7" r="4"/><circle class="i" cx="8" cy="7" r="2"/><rect class="i" x="2" y="2" width="2" height="2" rx=".5"/><rect class="i" x="12" y="2" width="2" height="2" rx=".5"/></g>
  <g class="i" transform="translate(28, 104)"><rect width="2" height="8" rx="1"/><rect x="4" y="2" width="2" height="10" rx="1"/><rect x="8" width="2" height="12" rx="1"/><rect x="12" y="3" width="2" height="7" rx="1"/></g>
  <path class="i" d="M56 116V108h1v6.5c0 1-1 1.5-2 1.5s-2-.5-2-1.5 1-1.5 2-1.5c.3 0 .6 0 .8.2V116h.2z"/>
  <g transform="translate(66, 102)"><rect class="s" width="18" height="12" rx="1"/><line class="s" x1="4.5" y1="0" x2="4.5" y2="12"/><line class="s" x1="9" y1="0" x2="9" y2="12"/><line class="s" x1="13.5" y1="0" x2="13.5" y2="12"/><rect class="i" x="3" y="0" width="2.5" height="7"/><rect class="i" x="7.5" y="0" width="2.5" height="7"/><rect class="i" x="12" y="0" width="2.5" height="7"/></g>
  <g transform="translate(92, 100)"><rect class="s" width="18" height="14" rx="1"/><circle class="s" cx="7.5" cy="7" r="5"/><circle class="i" cx="7.5" cy="7" r="2"/><line class="s" x1="14" y1="3" x2="10" y2="6"/><circle class="i" cx="14.5" cy="2.5" r="1.5"/></g>
  
</svg>